# Blender 4.3.1
# www.blender.org
mtllib 7.mtl
o Cube.001
v 23.640259 1.000066 -753.324707
v 21.640259 1.000066 -753.324707
v 21.640259 1.000065 -751.324707
v 23.640259 1.000065 -751.324707
v 23.640259 -0.999935 -751.324707
v 21.640259 -0.999935 -751.324707
v 21.640259 -0.999934 -753.324707
v 23.640259 -0.999934 -753.324707
vn -0.0000 1.0000 -0.0000
vn -0.0000 -0.0000 1.0000
vn -1.0000 -0.0000 -0.0000
vn -0.0000 -1.0000 -0.0000
vn 1.0000 -0.0000 -0.0000
vn -0.0000 -0.0000 -1.0000
vt 0.625000 0.500000
vt 0.875000 0.500000
vt 0.875000 0.750000
vt 0.625000 0.750000
vt 0.375000 0.750000
vt 0.625000 1.000000
vt 0.375000 1.000000
vt 0.375000 0.000000
vt 0.625000 0.000000
vt 0.625000 0.250000
vt 0.375000 0.250000
vt 0.125000 0.500000
vt 0.375000 0.500000
vt 0.125000 0.750000
s 1
usemtl Material.001
f 1/1/1 2/2/1 3/3/1 4/4/1
f 5/5/2 4/4/2 3/6/2 6/7/2
f 6/8/3 3/9/3 2/10/3 7/11/3
f 7/12/4 8/13/4 5/5/4 6/14/4
f 8/13/5 1/1/5 4/4/5 5/5/5
f 7/11/6 2/10/6 1/1/6 8/13/6
o Cube.002
v 27.426947 -8.091227 -739.752136
v 25.426947 -8.091227 -739.752136
v 25.426947 -8.091227 -737.752136
v 27.426947 -8.091227 -737.752136
v 27.426947 -10.091227 -737.752136
v 25.426947 -10.091227 -737.752136
v 25.426947 -10.091227 -739.752136
v 27.426947 -10.091227 -739.752136
vn -0.0000 1.0000 -0.0000
vn -0.0000 -0.0000 1.0000
vn -1.0000 -0.0000 -0.0000
vn -0.0000 -1.0000 -0.0000
vn 1.0000 -0.0000 -0.0000
vn -0.0000 -0.0000 -1.0000
vt 0.625000 0.500000
vt 0.875000 0.500000
vt 0.875000 0.750000
vt 0.625000 0.750000
vt 0.375000 0.750000
vt 0.625000 1.000000
vt 0.375000 1.000000
vt 0.375000 0.000000
vt 0.625000 0.000000
vt 0.625000 0.250000
vt 0.375000 0.250000
vt 0.125000 0.500000
vt 0.375000 0.500000
vt 0.125000 0.750000
s 1
usemtl Material.002
f 9/15/7 10/16/7 11/17/7 12/18/7
f 13/19/8 12/18/8 11/20/8 14/21/8
f 14/22/9 11/23/9 10/24/9 15/25/9
f 15/26/10 16/27/10 13/19/10 14/28/10
f 16/27/11 9/15/11 12/18/11 13/19/11
f 15/25/12 10/24/12 9/15/12 16/27/12
o Cube.003
v 23.640259 1.000069 -722.343628
v 21.640259 1.000069 -722.343628
v 21.640259 1.000068 -720.343628
v 23.640259 1.000068 -720.343628
v 23.640259 -0.999932 -720.343628
v 21.640259 -0.999932 -720.343628
v 21.640259 -0.999932 -722.343628
v 23.640259 -0.999932 -722.343628
vn -0.0000 1.0000 -0.0000
vn -0.0000 -0.0000 1.0000
vn -1.0000 -0.0000 -0.0000
vn -0.0000 -1.0000 -0.0000
vn 1.0000 -0.0000 -0.0000
vn -0.0000 -0.0000 -1.0000
vt 0.625000 0.500000
vt 0.875000 0.500000
vt 0.875000 0.750000
vt 0.625000 0.750000
vt 0.375000 0.750000
vt 0.625000 1.000000
vt 0.375000 1.000000
vt 0.375000 0.000000
vt 0.625000 0.000000
vt 0.625000 0.250000
vt 0.375000 0.250000
vt 0.125000 0.500000
vt 0.375000 0.500000
vt 0.125000 0.750000
s 1
usemtl Material.003
f 17/29/13 18/30/13 19/31/13 20/32/13
f 21/33/14 20/32/14 19/34/14 22/35/14
f 22/36/15 19/37/15 18/38/15 23/39/15
f 23/40/16 24/41/16 21/33/16 22/42/16
f 24/41/17 17/29/17 20/32/17 21/33/17
f 23/39/18 18/38/18 17/29/18 24/41/18
o Cube.007
v 131.325623 -58.542015 -758.062805
v 129.325623 -58.542015 -758.062805
v 129.325623 -58.542015 -756.062805
v 131.325623 -58.542015 -756.062805
v 131.325623 -60.542015 -756.062805
v 129.325623 -60.542015 -756.062805
v 129.325623 -60.542015 -758.062805
v 131.325623 -60.542015 -758.062805
vn -0.0000 1.0000 -0.0000
vn -0.0000 -0.0000 1.0000
vn -1.0000 -0.0000 -0.0000
vn -0.0000 -1.0000 -0.0000
vn 1.0000 -0.0000 -0.0000
vn -0.0000 -0.0000 -1.0000
vt 0.625000 0.500000
vt 0.875000 0.500000
vt 0.875000 0.750000
vt 0.625000 0.750000
vt 0.375000 0.750000
vt 0.625000 1.000000
vt 0.375000 1.000000
vt 0.375000 0.000000
vt 0.625000 0.000000
vt 0.625000 0.250000
vt 0.375000 0.250000
vt 0.125000 0.500000
vt 0.375000 0.500000
vt 0.125000 0.750000
s 1
usemtl Material.007
f 25/43/19 26/44/19 27/45/19 28/46/19
f 29/47/20 28/46/20 27/48/20 30/49/20
f 30/50/21 27/51/21 26/52/21 31/53/21
f 31/54/22 32/55/22 29/47/22 30/56/22
f 32/55/23 25/43/23 28/46/23 29/47/23
f 31/53/24 26/52/24 25/43/24 32/55/24
o Diamondo
v 1.921394 163.384308 -1.772482
v 103.667732 4.072689 -53.420322
v 37.606377 5.088867 -106.702003
v 102.531914 2.637560 30.970976
v 50.585670 1.590286 97.497215
v 1.394264 -156.568878 -7.220874
v -34.290688 1.726547 97.708702
v -100.352058 2.742664 44.427090
v -47.270073 5.225097 -106.490517
v -99.216255 4.177884 -39.964207
vn 0.5301 0.5483 -0.6468
vn 0.6668 0.5251 0.5289
vn 0.8456 0.5334 0.0205
vn 0.0012 -0.5523 0.8336
vn 0.8438 -0.5366 0.0022
vn 0.5284 -0.5277 -0.6651
vn 0.6650 -0.5450 0.5107
vn -0.5284 0.5277 0.6651
vn -0.0012 0.5523 -0.8336
vn -0.8438 0.5366 -0.0022
vn -0.6650 0.5450 -0.5107
vn -0.5301 -0.5483 0.6468
vn -0.6668 -0.5251 -0.5289
vn -0.0030 -0.5236 -0.8520
vn -0.8456 -0.5334 -0.0205
vn 0.0030 0.5236 0.8520
vt 0.625000 0.500000
s 1
usemtl Blue
f 33/57/25 34/57/25 35/57/25
f 36/57/26 33/57/26 37/57/26
f 34/57/27 33/57/27 36/57/27
f 38/57/28 37/57/28 39/57/28
f 34/57/29 36/57/29 38/57/29
f 34/57/30 38/57/30 35/57/30
f 38/57/31 36/57/31 37/57/31
f 40/57/32 39/57/32 33/57/32
f 35/57/33 41/57/33 33/57/33
f 42/57/34 40/57/34 33/57/34
f 41/57/35 42/57/35 33/57/35
f 39/57/36 40/57/36 38/57/36
f 38/57/37 42/57/37 41/57/37
f 41/57/38 35/57/38 38/57/38
f 38/57/39 40/57/39 42/57/39
f 37/57/40 33/57/40 39/57/40
