# Blender 4.3.1
# www.blender.org
mtllib 8.mtl
o Cube.001
v 23.640259 1.000066 -753.324707
v 21.640259 1.000066 -753.324707
v 21.640259 1.000065 -751.324707
v 23.640259 1.000065 -751.324707
v 23.640259 -0.999935 -751.324707
v 21.640259 -0.999935 -751.324707
v 21.640259 -0.999934 -753.324707
v 23.640259 -0.999934 -753.324707
vn -0.0000 1.0000 -0.0000
vn -0.0000 -0.0000 1.0000
vn -1.0000 -0.0000 -0.0000
vn -0.0000 -1.0000 -0.0000
vn 1.0000 -0.0000 -0.0000
vn -0.0000 -0.0000 -1.0000
vt 0.625000 0.500000
vt 0.875000 0.500000
vt 0.875000 0.750000
vt 0.625000 0.750000
vt 0.375000 0.750000
vt 0.625000 1.000000
vt 0.375000 1.000000
vt 0.375000 0.000000
vt 0.625000 0.000000
vt 0.625000 0.250000
vt 0.375000 0.250000
vt 0.125000 0.500000
vt 0.375000 0.500000
vt 0.125000 0.750000
s 1
usemtl Material.001
f 1/1/1 2/2/1 3/3/1 4/4/1
f 5/5/2 4/4/2 3/6/2 6/7/2
f 6/8/3 3/9/3 2/10/3 7/11/3
f 7/12/4 8/13/4 5/5/4 6/14/4
f 8/13/5 1/1/5 4/4/5 5/5/5
f 7/11/6 2/10/6 1/1/6 8/13/6
o Cube.002
v 27.426947 -8.091227 -739.752136
v 25.426947 -8.091227 -739.752136
v 25.426947 -8.091227 -737.752136
v 27.426947 -8.091227 -737.752136
v 27.426947 -10.091227 -737.752136
v 25.426947 -10.091227 -737.752136
v 25.426947 -10.091227 -739.752136
v 27.426947 -10.091227 -739.752136
vn -0.0000 1.0000 -0.0000
vn -0.0000 -0.0000 1.0000
vn -1.0000 -0.0000 -0.0000
vn -0.0000 -1.0000 -0.0000
vn 1.0000 -0.0000 -0.0000
vn -0.0000 -0.0000 -1.0000
vt 0.625000 0.500000
vt 0.875000 0.500000
vt 0.875000 0.750000
vt 0.625000 0.750000
vt 0.375000 0.750000
vt 0.625000 1.000000
vt 0.375000 1.000000
vt 0.375000 0.000000
vt 0.625000 0.000000
vt 0.625000 0.250000
vt 0.375000 0.250000
vt 0.125000 0.500000
vt 0.375000 0.500000
vt 0.125000 0.750000
s 1
usemtl Material.002
f 9/15/7 10/16/7 11/17/7 12/18/7
f 13/19/8 12/18/8 11/20/8 14/21/8
f 14/22/9 11/23/9 10/24/9 15/25/9
f 15/26/10 16/27/10 13/19/10 14/28/10
f 16/27/11 9/15/11 12/18/11 13/19/11
f 15/25/12 10/24/12 9/15/12 16/27/12
o Cube.003
v 23.640259 1.000069 -722.343628
v 21.640259 1.000069 -722.343628
v 21.640259 1.000068 -720.343628
v 23.640259 1.000068 -720.343628
v 23.640259 -0.999932 -720.343628
v 21.640259 -0.999932 -720.343628
v 21.640259 -0.999932 -722.343628
v 23.640259 -0.999932 -722.343628
vn -0.0000 1.0000 -0.0000
vn -0.0000 -0.0000 1.0000
vn -1.0000 -0.0000 -0.0000
vn -0.0000 -1.0000 -0.0000
vn 1.0000 -0.0000 -0.0000
vn -0.0000 -0.0000 -1.0000
vt 0.625000 0.500000
vt 0.875000 0.500000
vt 0.875000 0.750000
vt 0.625000 0.750000
vt 0.375000 0.750000
vt 0.625000 1.000000
vt 0.375000 1.000000
vt 0.375000 0.000000
vt 0.625000 0.000000
vt 0.625000 0.250000
vt 0.375000 0.250000
vt 0.125000 0.500000
vt 0.375000 0.500000
vt 0.125000 0.750000
s 1
usemtl Material.003
f 17/29/13 18/30/13 19/31/13 20/32/13
f 21/33/14 20/32/14 19/34/14 22/35/14
f 22/36/15 19/37/15 18/38/15 23/39/15
f 23/40/16 24/41/16 21/33/16 22/42/16
f 24/41/17 17/29/17 20/32/17 21/33/17
f 23/39/18 18/38/18 17/29/18 24/41/18
o Cube.007
v 131.325623 -58.542015 -758.062805
v 129.325623 -58.542015 -758.062805
v 129.325623 -58.542015 -756.062805
v 131.325623 -58.542015 -756.062805
v 131.325623 -60.542015 -756.062805
v 129.325623 -60.542015 -756.062805
v 129.325623 -60.542015 -758.062805
v 131.325623 -60.542015 -758.062805
vn -0.0000 1.0000 -0.0000
vn -0.0000 -0.0000 1.0000
vn -1.0000 -0.0000 -0.0000
vn -0.0000 -1.0000 -0.0000
vn 1.0000 -0.0000 -0.0000
vn -0.0000 -0.0000 -1.0000
vt 0.625000 0.500000
vt 0.875000 0.500000
vt 0.875000 0.750000
vt 0.625000 0.750000
vt 0.375000 0.750000
vt 0.625000 1.000000
vt 0.375000 1.000000
vt 0.375000 0.000000
vt 0.625000 0.000000
vt 0.625000 0.250000
vt 0.375000 0.250000
vt 0.125000 0.500000
vt 0.375000 0.500000
vt 0.125000 0.750000
s 1
usemtl Material.007
f 25/43/19 26/44/19 27/45/19 28/46/19
f 29/47/20 28/46/20 27/48/20 30/49/20
f 30/50/21 27/51/21 26/52/21 31/53/21
f 31/54/22 32/55/22 29/47/22 30/56/22
f 32/55/23 25/43/23 28/46/23 29/47/23
f 31/53/24 26/52/24 25/43/24 32/55/24
o Cube.008
v 23.640259 1.000066 -753.324707
v 21.640259 1.000066 -753.324707
v 21.640259 1.000065 -751.324707
v 23.640259 1.000065 -751.324707
v 23.640259 -0.999935 -751.324707
v 21.640259 -0.999935 -751.324707
v 21.640259 -0.999934 -753.324707
v 23.640259 -0.999934 -753.324707
vn -0.0000 1.0000 -0.0000
vn -0.0000 -0.0000 1.0000
vn -1.0000 -0.0000 -0.0000
vn -0.0000 -1.0000 -0.0000
vn 1.0000 -0.0000 -0.0000
vn -0.0000 -0.0000 -1.0000
vt 0.625000 0.500000
vt 0.875000 0.500000
vt 0.875000 0.750000
vt 0.625000 0.750000
vt 0.375000 0.750000
vt 0.625000 1.000000
vt 0.375000 1.000000
vt 0.375000 0.000000
vt 0.625000 0.000000
vt 0.625000 0.250000
vt 0.375000 0.250000
vt 0.125000 0.500000
vt 0.375000 0.500000
vt 0.125000 0.750000
s 1
usemtl Material.008
f 33/57/25 34/58/25 35/59/25 36/60/25
f 37/61/26 36/60/26 35/62/26 38/63/26
f 38/64/27 35/65/27 34/66/27 39/67/27
f 39/68/28 40/69/28 37/61/28 38/70/28
f 40/69/29 33/57/29 36/60/29 37/61/29
f 39/67/30 34/66/30 33/57/30 40/69/30
o SphereGemLarge
v 1.935042 -109.913544 -2.026300
v 49.259140 -93.296394 32.356270
v -16.140823 -93.296387 53.606396
v 82.448227 -48.407658 56.469254
v 96.583542 -57.143860 -2.026295
v -56.561050 -93.296082 -2.026298
v -16.140823 -93.296387 -57.658985
v 49.259140 -93.296379 -36.408863
v 107.755844 1.352872 32.356461
v -28.817703 -48.407692 92.622383
v 31.183517 -57.144081 87.989517
v 1.935042 1.352866 109.240128
v -97.584549 -48.407196 -2.026294
v -74.637344 -57.143925 53.606579
v -103.885757 1.352872 32.356461
v -28.817703 -48.407646 -96.674980
v -74.637344 -57.143913 -57.659168
v -63.465744 1.352914 -92.042709
v 82.448227 -48.407646 -60.521896
v 31.183517 -57.144035 -92.042160
v 67.335800 1.352914 -92.042709
v 67.335800 1.352867 87.990067
v -63.465744 1.352867 87.990067
v -103.885757 1.352878 -36.409039
v 1.935042 1.352915 -113.292709
v 107.755844 1.352878 -36.409039
v 32.687729 51.113457 92.622391
v 78.507370 59.849667 53.606590
v 20.010849 96.002136 53.606472
v -78.578140 51.113400 56.469261
v -27.313431 59.849785 87.989525
v -45.389114 96.002129 32.356346
v -78.578140 51.113407 -60.521889
v -92.713516 59.849609 -2.026284
v -45.389114 96.002144 -36.408787
v 32.687729 51.113472 -96.674973
v -27.313431 59.849800 -92.042152
v 20.010849 96.002136 -57.658909
v 101.454575 51.112976 -2.026285
v 78.507370 59.849674 -57.659157
v 60.431076 96.001831 -2.026220
v 1.935042 112.619263 -2.026219
vn 0.1024 -0.9435 0.3151
vn 0.7002 -0.6617 0.2680
vn -0.2680 -0.9435 0.1947
vn -0.2680 -0.9435 -0.1947
vn 0.1024 -0.9435 -0.3151
vn 0.9050 -0.3304 0.2680
vn 0.0247 -0.3304 0.9435
vn -0.8897 -0.3304 0.3151
vn -0.5746 -0.3304 -0.7488
vn 0.5346 -0.3304 -0.7779
vn 0.8026 -0.1256 0.5831
vn -0.3066 -0.1256 0.9435
vn -0.9921 -0.1256 -0.0000
vn -0.3066 -0.1256 -0.9435
vn 0.8026 -0.1256 -0.5831
vn 0.4089 0.6617 0.6284
vn -0.4713 0.6617 0.5831
vn -0.7002 0.6617 -0.2680
vn 0.0385 0.6617 -0.7488
vn 0.7240 0.6617 -0.1947
vn 0.2680 0.9435 -0.1947
vn 0.4911 0.7947 -0.3568
vn 0.4089 0.6617 -0.6284
vn -0.1024 0.9435 -0.3151
vn -0.1876 0.7947 -0.5773
vn -0.4713 0.6617 -0.5831
vn -0.3313 0.9435 -0.0000
vn -0.6071 0.7947 -0.0000
vn -0.7002 0.6617 0.2680
vn -0.1024 0.9435 0.3151
vn -0.1876 0.7947 0.5773
vn 0.0385 0.6617 0.7488
vn 0.2680 0.9435 0.1947
vn 0.4911 0.7947 0.3568
vn 0.7240 0.6617 0.1947
vn 0.8897 0.3304 -0.3151
vn 0.7947 0.1876 -0.5773
vn 0.5746 0.3304 -0.7488
vn -0.0247 0.3304 -0.9435
vn -0.3035 0.1876 -0.9342
vn -0.5346 0.3304 -0.7779
vn -0.9050 0.3304 -0.2680
vn -0.9822 0.1876 -0.0000
vn -0.9050 0.3304 0.2680
vn -0.5346 0.3304 0.7779
vn -0.3035 0.1876 0.9342
vn -0.0247 0.3304 0.9435
vn 0.5746 0.3304 0.7488
vn 0.7947 0.1876 0.5773
vn 0.8897 0.3304 0.3151
vn 0.3066 0.1256 -0.9435
vn 0.3035 -0.1876 -0.9342
vn 0.0247 -0.3304 -0.9435
vn -0.8026 0.1256 -0.5831
vn -0.7947 -0.1876 -0.5773
vn -0.8897 -0.3304 -0.3151
vn -0.8026 0.1256 0.5831
vn -0.7947 -0.1876 0.5773
vn -0.5746 -0.3304 0.7488
vn 0.3066 0.1256 0.9435
vn 0.3035 -0.1876 0.9342
vn 0.5346 -0.3304 0.7779
vn 0.9921 0.1256 -0.0000
vn 0.9822 -0.1876 -0.0000
vn 0.9050 -0.3304 -0.2680
vn 0.4713 -0.6617 -0.5831
vn 0.1876 -0.7947 -0.5773
vn -0.0385 -0.6617 -0.7488
vn -0.4089 -0.6617 -0.6284
vn -0.4911 -0.7947 -0.3568
vn -0.7240 -0.6617 -0.1947
vn -0.7240 -0.6617 0.1947
vn -0.4911 -0.7947 0.3568
vn -0.4089 -0.6617 0.6284
vn 0.7002 -0.6617 -0.2680
vn 0.6071 -0.7947 -0.0000
vn 0.3313 -0.9435 -0.0000
vn -0.0385 -0.6617 0.7488
vn 0.1876 -0.7947 0.5773
vn 0.4713 -0.6617 0.5831
vt 0.625000 0.500000
s 1
usemtl Green.001
f 41/71/31 42/71/31 43/71/31
f 44/71/32 42/71/32 45/71/32
f 41/71/33 43/71/33 46/71/33
f 41/71/34 46/71/34 47/71/34
f 41/71/35 47/71/35 48/71/35
f 44/71/36 45/71/36 49/71/36
f 50/71/37 51/71/37 52/71/37
f 53/71/38 54/71/38 55/71/38
f 56/71/39 57/71/39 58/71/39
f 59/71/40 60/71/40 61/71/40
f 44/71/41 49/71/41 62/71/41
f 50/71/42 52/71/42 63/71/42
f 53/71/43 55/71/43 64/71/43
f 56/71/44 58/71/44 65/71/44
f 59/71/45 61/71/45 66/71/45
f 67/71/46 68/71/46 69/71/46
f 70/71/47 71/71/47 72/71/47
f 73/71/48 74/71/48 75/71/48
f 76/71/49 77/71/49 78/71/49
f 79/71/50 80/71/50 81/71/50
f 81/71/51 78/71/51 82/71/51
f 81/71/52 80/71/52 78/71/52
f 80/71/53 76/71/53 78/71/53
f 78/71/54 75/71/54 82/71/54
f 78/71/55 77/71/55 75/71/55
f 77/71/56 73/71/56 75/71/56
f 75/71/57 72/71/57 82/71/57
f 75/71/58 74/71/58 72/71/58
f 74/71/59 70/71/59 72/71/59
f 72/71/60 69/71/60 82/71/60
f 72/71/61 71/71/61 69/71/61
f 71/71/62 67/71/62 69/71/62
f 69/71/63 81/71/63 82/71/63
f 69/71/64 68/71/64 81/71/64
f 68/71/65 79/71/65 81/71/65
f 66/71/66 80/71/66 79/71/66
f 66/71/67 61/71/67 80/71/67
f 61/71/68 76/71/68 80/71/68
f 65/71/69 77/71/69 76/71/69
f 65/71/70 58/71/70 77/71/70
f 58/71/71 73/71/71 77/71/71
f 64/71/72 74/71/72 73/71/72
f 64/71/73 55/71/73 74/71/73
f 55/71/74 70/71/74 74/71/74
f 63/71/75 71/71/75 70/71/75
f 63/71/76 52/71/76 71/71/76
f 52/71/77 67/71/77 71/71/77
f 62/71/78 68/71/78 67/71/78
f 62/71/79 49/71/79 68/71/79
f 49/71/80 79/71/80 68/71/80
f 61/71/81 65/71/81 76/71/81
f 61/71/82 60/71/82 65/71/82
f 60/71/83 56/71/83 65/71/83
f 58/71/84 64/71/84 73/71/84
f 58/71/85 57/71/85 64/71/85
f 57/71/86 53/71/86 64/71/86
f 55/71/87 63/71/87 70/71/87
f 55/71/88 54/71/88 63/71/88
f 54/71/89 50/71/89 63/71/89
f 52/71/90 62/71/90 67/71/90
f 52/71/91 51/71/91 62/71/91
f 51/71/92 44/71/92 62/71/92
f 49/71/93 66/71/93 79/71/93
f 49/71/94 45/71/94 66/71/94
f 45/71/95 59/71/95 66/71/95
f 48/71/96 60/71/96 59/71/96
f 48/71/97 47/71/97 60/71/97
f 47/71/98 56/71/98 60/71/98
f 47/71/99 57/71/99 56/71/99
f 47/71/100 46/71/100 57/71/100
f 46/71/101 53/71/101 57/71/101
f 46/71/102 54/71/102 53/71/102
f 46/71/103 43/71/103 54/71/103
f 43/71/104 50/71/104 54/71/104
f 45/71/105 48/71/105 59/71/105
f 45/71/106 42/71/106 48/71/106
f 42/71/107 41/71/107 48/71/107
f 43/71/108 51/71/108 50/71/108
f 43/71/109 42/71/109 51/71/109
f 42/71/110 44/71/110 51/71/110
