# Blender 4.3.1
# www.blender.org
mtllib love.mtl
o Love
v 42.847584 83.459618 36.280125
v -2.134749 55.432400 39.471394
v -1.737986 21.797869 57.725868
v 74.962624 -33.119244 -37.377956
v 45.300758 -72.083504 -26.147163
v 35.680164 -53.887508 -46.401508
v -47.191776 -44.613464 48.426155
v -8.934383 -76.892937 39.835808
v -1.287147 -43.863262 56.117664
v 77.965828 -48.514877 18.773869
v 46.805645 -80.804169 -5.518425
v 92.953773 -34.912991 -4.408607
v -8.675651 -102.883705 -12.962264
v -54.234608 -60.384373 -33.874149
v -6.794316 -96.497032 -25.352903
v 57.270847 37.257229 -55.793415
v -1.982975 25.117023 -55.687008
v 46.528687 69.928627 -46.177513
v 75.145470 51.939003 -49.592182
v 73.890656 17.976871 -53.379433
v 99.915634 48.037903 38.847813
v 103.063446 7.172684 35.558952
v 117.481339 37.533310 18.670773
v -83.659554 90.821945 6.464740
v -110.977592 63.717060 16.060043
v -73.851936 83.794083 33.719723
v -76.890388 10.823626 53.378094
v -29.926340 -14.730826 60.054363
v -64.564171 48.959049 54.939911
v -21.275843 -60.442146 -47.098145
v -49.509613 -25.537138 -53.188736
v -17.840921 3.416906 -59.859238
v -63.724041 45.665791 -54.817879
v 43.921349 -13.137541 -57.448902
v -1.140154 -35.359730 -58.111576
v -38.875305 -10.655521 -58.211323
v -100.590965 77.676620 -10.809338
v -120.231598 46.783802 -9.833187
v 96.995789 24.418358 -42.868011
v 112.384666 45.067181 -29.081074
v 38.308716 92.053139 21.472775
v 41.982353 96.556427 -3.977859
v -0.265663 70.774727 19.774841
v 24.000175 1.802740 -59.700092
v 18.081308 -98.060860 -11.308278
v 10.268557 -97.880676 22.467754
v 44.632114 -75.188828 23.657612
v 80.565704 -44.134293 -19.159563
v 108.851456 4.156986 -25.940735
v 119.768394 18.086472 -0.275170
v -56.840153 -61.360600 29.580248
v -53.084656 -77.556770 0.766168
v -13.922893 -97.453911 20.842266
v 15.210756 -89.891159 -27.636833
v 10.835914 -70.677513 -43.015022
v 56.401737 -25.178869 -50.681690
v 84.262337 -1.872913 -46.563404
v -84.677750 3.818069 -49.800426
v -0.346032 71.308411 -18.922531
v -36.525501 94.060707 -9.267216
v -85.743156 -42.768501 12.029692
v -84.428574 -43.961857 -13.185090
v -118.418083 12.667400 -11.564770
v -110.610710 -5.242104 12.404678
v 82.334702 92.794708 -6.151140
v 102.710602 70.435204 21.749254
v 114.484703 59.991375 -11.890666
v 24.105940 -65.756973 43.829502
v 50.738613 -29.318489 52.558086
v 32.784218 -7.232704 60.140759
v 82.370850 11.256052 51.311817
v 69.377480 44.224659 54.132320
v -41.219429 70.048935 45.082386
v -37.479168 88.278603 27.984739
v -116.669991 27.280672 23.169214
v -100.131760 45.433495 40.522110
v -43.647205 81.066078 -39.710117
v -97.640945 56.437824 -37.924255
v 70.566574 92.344093 19.328899
v 41.066334 90.092308 -27.206404
v 0.806909 54.254528 -40.199089
v 76.078224 82.154297 -32.537903
v -96.709679 -2.858671 38.521633
v -68.307419 93.826332 -18.376259
v -82.257141 77.022919 -33.761410
v -56.421875 97.116310 10.007650
v 72.675865 -32.129879 39.582973
v 112.032417 2.146137 15.739322
v -98.519318 -13.396329 -27.441324
v -107.881775 23.493633 -35.624855
v 71.736542 75.121063 39.273129
v 49.392368 59.465725 51.713799
vn -0.2273 0.4624 0.8570
vn 0.4511 -0.5467 -0.7054
vn -0.1442 -0.4105 0.9004
vn 0.7041 -0.7090 0.0392
vn -0.4850 -0.7452 -0.4577
vn -0.0560 0.2649 -0.9626
vn 0.2534 0.0980 -0.9624
vn 0.7556 0.0055 0.6550
vn -0.5749 0.7182 0.3921
vn -0.1385 0.0042 0.9904
vn -0.3385 -0.4206 -0.8417
vn 0.0396 0.1607 -0.9862
vn 0.1389 -0.0043 -0.9903
vn -0.0373 -0.0610 -0.9974
vn -0.0912 0.0197 -0.9956
vn -0.8436 0.5348 -0.0483
vn 0.5004 0.1909 -0.8445
vn -0.4841 0.8709 0.0842
vn 0.0077 0.1024 -0.9947
vn -0.0472 0.2217 -0.9740
vn 0.1859 -0.8846 -0.4277
vn 0.5354 -0.8211 0.1979
vn 0.6990 -0.6993 -0.1499
vn 0.9345 -0.1068 -0.3395
vn -0.5605 -0.7510 0.3491
vn 0.1745 -0.9836 0.0456
vn 0.1006 -0.6076 -0.7878
vn -0.1550 -0.2902 -0.9443
vn 0.7886 -0.5101 -0.3434
vn 0.4313 -0.3702 -0.8227
vn -0.0629 -0.5338 -0.8432
vn -0.3046 -0.5786 -0.7566
vn 0.3076 -0.2035 -0.9295
vn -0.0094 -0.3957 -0.9183
vn 0.6243 -0.7021 -0.3424
vn 0.4936 -0.8615 0.1188
vn 0.6466 -0.3859 -0.6581
vn 0.7439 -0.1148 -0.6584
vn 0.1558 -0.2877 -0.9450
vn 0.0021 -0.0441 -0.9990
vn 0.6580 -0.2173 -0.7210
vn 0.3922 0.0876 -0.9157
vn 0.5848 -0.6019 -0.5438
vn 0.7080 -0.4866 -0.5119
vn 0.1151 -0.3572 -0.9269
vn 0.2736 -0.5623 -0.7804
vn 0.5326 -0.7650 -0.3622
vn 0.2095 -0.8592 -0.4667
vn 0.4317 -0.0828 -0.8982
vn 0.2998 -0.1659 -0.9395
vn -0.1878 -0.0237 -0.9819
vn -0.4116 -0.3985 -0.8196
vn -0.1434 -0.2229 -0.9642
vn -0.2274 -0.1616 -0.9603
vn 0.3837 -0.5889 -0.7113
vn 0.4690 -0.7541 -0.4597
vn 0.1141 0.0024 -0.9935
vn 0.0535 -0.0787 -0.9955
vn 0.4063 -0.4146 -0.8143
vn 0.2184 -0.2962 -0.9298
vn -0.5156 0.8567 0.0129
vn 0.5343 0.8452 0.0105
vn -0.7300 -0.6834 -0.0057
vn -0.8542 -0.5097 -0.1027
vn 0.7168 0.6964 0.0347
vn 0.9014 0.3864 0.1955
vn 0.1579 -0.3377 0.9279
vn 0.1800 -0.0132 0.9836
vn 0.2921 0.4589 0.8391
vn 0.4475 0.8819 0.1483
vn -0.9632 -0.2271 0.1440
vn -0.3816 0.0856 0.9204
vn 0.1006 0.3417 -0.9344
vn -0.7600 0.4690 -0.4500
vn 0.4360 0.0953 0.8949
vn 0.5305 0.8070 0.2593
vn -0.3043 0.6077 -0.7335
vn 0.6119 0.6725 -0.4163
vn -0.6405 -0.7021 0.3111
vn -0.8275 -0.3093 0.4687
vn -0.1774 0.7406 -0.6481
vn 0.0291 0.9915 -0.1271
vn 0.4428 -0.5502 0.7079
vn 0.7494 -0.4764 0.4599
vn -0.3776 0.4062 0.8321
vn 0.3311 0.6085 0.7212
vn -0.8089 -0.3154 -0.4962
vn -0.7959 0.2077 -0.5687
vn 0.3762 0.3781 0.8459
vn -0.2504 0.4745 0.8439
vn -0.0101 0.0716 0.9974
vn -0.0122 0.0735 0.9972
vn -0.0126 0.0733 0.9972
vn 0.0176 0.1036 0.9945
vn 0.0959 0.9935 0.0619
vn 0.1445 0.9054 -0.3993
vn -0.4301 0.6929 -0.5787
vn 0.4263 0.7169 -0.5516
vn -0.2536 -0.2200 0.9420
vn -0.6625 -0.5321 0.5273
vn 0.8166 -0.5363 0.2133
vn 0.8879 -0.4383 -0.1398
vn 0.3923 0.8093 -0.4372
vn 0.1114 0.9043 -0.4121
vn -0.5436 -0.7590 -0.3582
vn -0.4788 -0.8754 0.0663
vn -0.4177 0.1009 -0.9030
vn -0.1823 0.4716 -0.8628
vn -0.5785 0.5093 0.6372
vn -0.9572 0.1918 0.2167
vn -0.9956 -0.0567 0.0740
vn -0.9111 -0.0275 -0.4114
vn -0.2529 0.9109 0.3259
vn 0.0316 0.6803 0.7323
vn -0.3367 -0.5936 0.7310
vn 0.3860 -0.6203 0.6828
vn -0.6164 -0.7135 -0.3332
vn -0.5696 -0.4420 -0.6929
vn -0.6794 -0.0784 0.7295
vn -0.8136 0.2312 0.5335
vn 0.1002 0.3281 0.9393
vn -0.0889 0.5008 0.8610
vn -0.3582 -0.5993 0.7159
vn -0.5387 -0.4736 0.6967
vn 0.0739 0.5537 0.8294
vn 0.0027 0.9846 0.1746
vn 0.7912 0.3056 0.5297
vn 0.4839 0.4921 0.7237
vn -0.4832 0.7747 -0.4080
vn -0.2227 0.9747 -0.0197
vn 0.2262 -0.1467 0.9630
vn 0.6875 -0.4753 0.5490
vn -0.4274 -0.3050 0.8511
vn -0.5649 -0.0741 0.8218
vn -0.6762 -0.3189 -0.6641
vn -0.4669 0.0837 -0.8804
vn 0.0786 0.3052 -0.9490
vn 0.0469 0.6912 -0.7211
vn 0.1978 0.4772 -0.8563
vn 0.4965 0.4150 -0.7624
vn -0.0616 -0.6692 0.7406
vn -0.0278 -0.9876 0.1543
vn -0.4274 0.7325 0.5300
vn 0.4486 0.6839 0.5753
vn 0.6034 -0.0177 0.7972
vn 0.5298 -0.3296 0.7814
vn 0.2529 0.4351 -0.8641
vn -0.2714 0.4719 -0.8388
vn 0.1293 -0.2263 0.9654
vn -0.0099 0.0712 0.9974
vn 0.8803 -0.1722 0.4420
vn 0.9924 0.1233 -0.0067
vn 0.9804 0.0729 -0.1830
vn 0.6190 0.5541 -0.5566
vn 0.0977 -0.5799 0.8088
vn 0.0438 -0.4499 0.8920
vn 0.2940 0.9433 0.1539
vn -0.0346 0.8820 0.4701
vn -0.7456 -0.4985 0.4423
vn -0.8335 -0.5522 -0.0173
vn -0.4394 0.8697 -0.2247
vn 0.0749 0.9599 -0.2701
vn 0.0131 -0.1212 0.9925
vn -0.1542 -0.2797 0.9476
vn 0.4307 0.6954 0.5753
vn 0.1508 0.7526 0.6410
vn -0.4744 0.8597 -0.1892
vn -0.6793 0.7250 0.1141
vn -0.6550 -0.5457 -0.5227
vn -0.8363 -0.4952 -0.2352
vn 0.0003 0.1572 0.9876
vn 0.2062 0.4113 0.8879
vn 0.9428 -0.1690 0.2873
vn 0.8927 -0.4503 -0.0170
vn -0.3031 0.4013 -0.8644
vn -0.6304 0.5763 -0.5200
vn 0.4003 -0.4796 0.7808
vn 0.4501 -0.3254 0.8316
vn 0.5524 -0.5809 0.5978
vn 0.6302 -0.7524 0.1918
vn -0.4138 0.7266 0.5485
vn 0.0251 0.8680 0.4960
s 1
usemtl wire_143224087
f 1//1 2//1 3//1
f 4//2 5//2 6//2
f 7//3 8//3 9//3
f 10//4 11//4 12//4
f 13//5 14//5 15//5
f 16//6 17//6 18//6
f 19//7 20//7 16//7
f 21//8 22//8 23//8
f 24//9 25//9 26//9
f 27//10 28//10 29//10
f 30//11 14//11 31//11
f 32//12 33//12 17//12
f 20//13 34//13 16//13
f 35//14 36//14 32//14
f 32//15 36//15 33//15
f 37//16 38//16 25//16
f 39//17 19//17 40//17
f 41//18 42//18 43//18
f 16//19 44//19 32//19
f 16//20 32//20 17//20
f 15//21 45//21 13//21
f 46//22 11//22 47//22
f 11//23 48//23 12//23
f 49//24 40//24 50//24
f 51//25 52//25 53//25
f 13//26 45//26 46//26
f 54//27 15//27 55//27
f 30//28 31//28 35//28
f 48//29 49//29 12//29
f 4//30 56//30 57//30
f 55//31 15//31 30//31
f 15//32 14//32 30//32
f 57//33 56//33 34//33
f 55//34 30//34 35//34
f 11//35 5//35 48//35
f 46//36 45//36 11//36
f 49//37 4//37 57//37
f 40//38 49//38 39//38
f 6//39 35//39 34//39
f 35//40 32//40 44//40
f 39//41 49//41 57//41
f 39//42 20//42 19//42
f 48//43 5//43 4//43
f 48//44 4//44 49//44
f 35//45 6//45 55//45
f 6//46 54//46 55//46
f 11//47 45//47 5//47
f 45//48 15//48 54//48
f 39//49 57//49 20//49
f 20//50 57//50 34//50
f 36//51 58//51 33//51
f 31//52 14//52 58//52
f 35//53 31//53 36//53
f 31//54 58//54 36//54
f 5//55 54//55 6//55
f 54//56 5//56 45//56
f 34//57 44//57 16//57
f 34//58 35//58 44//58
f 4//59 6//59 56//59
f 6//60 34//60 56//60
f 42//61 59//61 43//61
f 60//62 43//62 59//62
f 61//63 62//63 52//63
f 63//64 62//64 64//64
f 65//65 66//65 67//65
f 67//66 66//66 23//66
f 68//67 69//67 9//67
f 70//68 71//68 72//68
f 2//69 73//69 3//69
f 43//70 60//70 74//70
f 63//71 64//71 75//71
f 76//72 27//72 29//72
f 17//73 33//73 77//73
f 37//74 78//74 38//74
f 72//75 71//75 21//75
f 79//76 66//76 65//76
f 80//77 18//77 81//77
f 82//78 65//78 67//78
f 52//79 51//79 61//79
f 64//80 83//80 75//80
f 84//81 77//81 85//81
f 60//82 84//82 86//82
f 68//83 47//83 87//83
f 22//84 10//84 88//84
f 29//85 26//85 76//85
f 2//86 74//86 73//86
f 89//87 63//87 90//87
f 38//88 78//88 90//88
f 21//89 91//89 72//89
f 1//90 3//90 92//90
f 28//91 3//92 29//93
f 3//94 70//94 72//94
f 42//95 79//95 65//95
f 65//96 82//96 80//96
f 81//97 59//97 80//97
f 77//98 59//98 81//98
f 7//99 28//99 27//99
f 61//100 51//100 83//100
f 12//101 88//101 10//101
f 12//102 49//102 50//102
f 59//103 77//103 60//103
f 77//104 84//104 60//104
f 52//105 14//105 13//105
f 52//106 13//106 53//106
f 33//107 58//107 78//107
f 33//108 85//108 77//108
f 76//109 26//109 25//109
f 38//110 75//110 25//110
f 63//111 75//111 38//111
f 38//112 90//112 63//112
f 86//113 24//113 26//113
f 74//114 26//114 73//114
f 53//115 8//115 7//115
f 46//116 47//116 68//116
f 52//117 62//117 14//117
f 58//118 14//118 89//118
f 76//119 75//119 83//119
f 25//120 75//120 76//120
f 29//121 3//121 73//121
f 73//122 26//122 29//122
f 53//123 7//123 51//123
f 83//124 51//124 7//124
f 92//125 91//125 1//125
f 42//126 41//126 79//126
f 66//127 21//127 23//127
f 66//128 91//128 21//128
f 37//129 84//129 85//129
f 84//130 24//130 86//130
f 69//131 71//131 70//131
f 87//132 10//132 22//132
f 83//133 7//133 27//133
f 76//134 83//134 27//134
f 58//135 89//135 90//135
f 58//136 90//136 78//136
f 18//137 19//137 16//137
f 18//138 80//138 82//138
f 19//139 18//139 82//139
f 82//140 40//140 19//140
f 53//141 46//141 8//141
f 53//142 13//142 46//142
f 43//143 2//143 41//143
f 43//144 74//144 2//144
f 71//145 22//145 21//145
f 87//146 22//146 71//146
f 17//147 77//147 81//147
f 17//148 81//148 18//148
f 9//149 69//149 70//149
f 28//91 70//150 3//92
f 88//151 23//151 22//151
f 50//152 67//152 23//152
f 40//153 67//153 50//153
f 82//154 67//154 40//154
f 46//155 68//155 8//155
f 9//156 8//156 68//156
f 74//157 60//157 86//157
f 86//158 26//158 74//158
f 64//159 61//159 83//159
f 62//160 61//160 64//160
f 42//161 80//161 59//161
f 65//162 80//162 42//162
f 9//163 70//163 28//163
f 7//164 9//164 28//164
f 91//165 66//165 79//165
f 79//166 1//166 91//166
f 24//167 84//167 37//167
f 24//168 37//168 25//168
f 89//169 14//169 62//169
f 89//170 62//170 63//170
f 72//171 92//171 3//171
f 72//172 91//172 92//172
f 88//173 50//173 23//173
f 12//174 50//174 88//174
f 33//175 78//175 85//175
f 37//176 85//176 78//176
f 68//177 87//177 69//177
f 69//178 87//178 71//178
f 47//179 10//179 87//179
f 47//180 11//180 10//180
f 41//181 2//181 1//181
f 79//182 41//182 1//182
